<?xml version="1.0" encoding="UTF-8" standalone="no"?>
<!DOCTYPE svg PUBLIC "-//W3C//DTD SVG 1.1//EN"
 "http://www.w3.org/Graphics/SVG/1.1/DTD/svg11.dtd">
<!-- Generated by graphviz version 2.38.0 (20140413.2041)
 -->
<!-- Title: world Pages: 1 -->
<svg width="391pt" height="301pt"
 viewBox="0.00 0.00 391.14 301.22" xmlns="http://www.w3.org/2000/svg" xmlns:xlink="http://www.w3.org/1999/xlink">
<g id="graph0" class="graph" transform="scale(1 1) rotate(0) translate(4 297.22)">
<title>world</title>
<polygon fill="white" stroke="none" points="-4,4 -4,-297.22 387.137,-297.22 387.137,4 -4,4"/>
<!-- room0 -->
<g id="node1" class="node"><title>room0</title>
<ellipse fill="lightblue" stroke="lightblue" cx="171.083" cy="-266.35" rx="63.7795" ry="26.7407"/>
<text text-anchor="middle" x="171.083" y="-270.15" font-family="Times,serif" font-size="14.00">Living Room</text>
<text text-anchor="middle" x="171.083" y="-255.15" font-family="Times,serif" font-size="14.00">#0</text>
</g>
<!-- room4 -->
<g id="node3" class="node"><title>room4</title>
<ellipse fill="lightgrey" stroke="black" cx="48.0833" cy="-146.61" rx="48.1667" ry="26.7407"/>
<text text-anchor="middle" x="48.0833" y="-150.41" font-family="Times,serif" font-size="14.00">Outhouse</text>
<text text-anchor="middle" x="48.0833" y="-135.41" font-family="Times,serif" font-size="14.00">#4</text>
</g>
<!-- room0&#45;&gt;room4 -->
<g id="edge1" class="edge"><title>room0&#45;&gt;room4</title>
<path fill="none" stroke="black" d="M109.762,-258.958C85.8498,-253.122 60.7135,-242.12 46.0833,-221.48 38.4143,-210.661 37.2646,-196.536 38.6197,-183.538"/>
<polygon fill="black" stroke="black" points="42.1119,-183.855 40.1668,-173.44 35.1926,-182.794 42.1119,-183.855"/>
<text text-anchor="middle" x="60.5833" y="-210.28" font-family="Times,serif" font-size="14.00">West</text>
<text text-anchor="middle" x="60.5833" y="-195.28" font-family="Times,serif" font-size="14.00">#5</text>
</g>
<!-- room7 -->
<g id="node4" class="node"><title>room7</title>
<ellipse fill="blue" stroke="blue" cx="163.083" cy="-146.61" rx="41.9398" ry="26.7407"/>
<text text-anchor="middle" x="163.083" y="-150.41" font-family="Times,serif" font-size="14.00">Kitchen</text>
<text text-anchor="middle" x="163.083" y="-135.41" font-family="Times,serif" font-size="14.00">#7</text>
</g>
<!-- room0&#45;&gt;room7 -->
<g id="edge3" class="edge"><title>room0&#45;&gt;room7</title>
<path fill="none" stroke="black" d="M153.235,-240.409C149.876,-234.472 146.862,-227.97 145.083,-221.48 141.559,-208.622 143.618,-194.412 147.402,-181.918"/>
<polygon fill="black" stroke="black" points="150.76,-182.919 150.734,-172.324 144.147,-180.622 150.76,-182.919"/>
<text text-anchor="middle" x="161.083" y="-210.28" font-family="Times,serif" font-size="14.00">South</text>
<text text-anchor="middle" x="161.083" y="-195.28" font-family="Times,serif" font-size="14.00">#8</text>
</g>
<!-- room13 -->
<g id="node6" class="node"><title>room13</title>
<ellipse fill="lightgrey" stroke="black" cx="277.083" cy="-146.61" rx="27.6545" ry="26.7407"/>
<text text-anchor="middle" x="277.083" y="-150.41" font-family="Times,serif" font-size="14.00">Den</text>
<text text-anchor="middle" x="277.083" y="-135.41" font-family="Times,serif" font-size="14.00">#13</text>
</g>
<!-- room0&#45;&gt;room13 -->
<g id="edge7" class="edge"><title>room0&#45;&gt;room13</title>
<path fill="none" stroke="black" stroke-dasharray="5,2" d="M196.143,-241.132C202.438,-234.84 209.102,-227.997 215.083,-221.48 228.427,-206.941 242.627,-190.131 254.065,-176.223"/>
<polygon fill="black" stroke="black" points="256.834,-178.366 260.454,-168.408 251.415,-173.935 256.834,-178.366"/>
<text text-anchor="middle" x="254.083" y="-210.28" font-family="Times,serif" font-size="14.00">East</text>
<text text-anchor="middle" x="254.083" y="-195.28" font-family="Times,serif" font-size="14.00">#14</text>
</g>
<!-- room2 -->
<g id="node2" class="node"><title>room2</title>
<ellipse fill="lightgrey" stroke="black" cx="318.083" cy="-266.35" rx="65.1077" ry="26.7407"/>
<text text-anchor="middle" x="318.083" y="-270.15" font-family="Times,serif" font-size="14.00">Master Room</text>
<text text-anchor="middle" x="318.083" y="-255.15" font-family="Times,serif" font-size="14.00">#2</text>
</g>
<!-- room4&#45;&gt;room0 -->
<g id="edge2" class="edge"><title>room4&#45;&gt;room0</title>
<path fill="none" stroke="black" d="M68.0503,-171.102C81.1631,-186.065 98.9931,-205.558 116.083,-221.48 121.367,-226.403 127.144,-231.392 132.904,-236.154"/>
<polygon fill="black" stroke="black" points="130.73,-238.897 140.701,-242.479 135.141,-233.461 130.73,-238.897"/>
<text text-anchor="middle" x="128.083" y="-210.28" font-family="Times,serif" font-size="14.00">East</text>
<text text-anchor="middle" x="128.083" y="-195.28" font-family="Times,serif" font-size="14.00">#6</text>
</g>
<!-- room7&#45;&gt;room0 -->
<g id="edge4" class="edge"><title>room7&#45;&gt;room0</title>
<path fill="none" stroke="black" d="M172.585,-172.807C174.45,-178.839 176.124,-185.319 177.083,-191.48 178.982,-203.673 178.616,-217.098 177.415,-229.121"/>
<polygon fill="black" stroke="black" points="173.915,-228.909 176.182,-239.259 180.864,-229.755 173.915,-228.909"/>
<text text-anchor="middle" x="195.083" y="-210.28" font-family="Times,serif" font-size="14.00">North</text>
<text text-anchor="middle" x="195.083" y="-195.28" font-family="Times,serif" font-size="14.00">#9</text>
</g>
<!-- room10 -->
<g id="node5" class="node"><title>room10</title>
<ellipse fill="lightgrey" stroke="black" cx="162.083" cy="-26.8701" rx="67.3507" ry="26.7407"/>
<text text-anchor="middle" x="162.083" y="-30.6701" font-family="Times,serif" font-size="14.00">Storage Room</text>
<text text-anchor="middle" x="162.083" y="-15.6701" font-family="Times,serif" font-size="14.00">#10</text>
</g>
<!-- room7&#45;&gt;room10 -->
<g id="edge5" class="edge"><title>room7&#45;&gt;room10</title>
<path fill="none" stroke="black" d="M147.75,-121.387C144.591,-115.209 141.728,-108.42 140.083,-101.74 136.895,-88.7935 137.012,-84.715 140.083,-71.7401 140.806,-68.6879 141.775,-65.6063 142.906,-62.567"/>
<polygon fill="black" stroke="black" points="146.245,-63.6611 146.961,-53.0905 139.809,-60.9073 146.245,-63.6611"/>
<text text-anchor="middle" x="152.083" y="-90.5401" font-family="Times,serif" font-size="14.00">East</text>
<text text-anchor="middle" x="152.083" y="-75.5401" font-family="Times,serif" font-size="14.00">#11</text>
</g>
<!-- room10&#45;&gt;room7 -->
<g id="edge6" class="edge"><title>room10&#45;&gt;room7</title>
<path fill="none" stroke="black" d="M163.463,-53.8446C163.721,-59.7273 163.951,-65.9472 164.083,-71.7401 164.363,-84.0377 164.293,-97.4888 164.096,-109.503"/>
<polygon fill="black" stroke="black" points="160.594,-109.559 163.896,-119.626 167.593,-109.698 160.594,-109.559"/>
<text text-anchor="middle" x="179.583" y="-90.5401" font-family="Times,serif" font-size="14.00">West</text>
<text text-anchor="middle" x="179.583" y="-75.5401" font-family="Times,serif" font-size="14.00">#12</text>
</g>
<!-- room13&#45;&gt;room0 -->
<g id="edge8" class="edge"><title>room13&#45;&gt;room0</title>
<path fill="none" stroke="black" d="M280.76,-173.452C281.546,-188.763 279.944,-207.786 270.083,-221.48 264.468,-229.278 247.551,-237.844 229.253,-245.321"/>
<polygon fill="black" stroke="black" points="227.926,-242.082 219.908,-249.008 230.495,-248.593 227.926,-242.082"/>
<text text-anchor="middle" x="294.583" y="-210.28" font-family="Times,serif" font-size="14.00">West</text>
<text text-anchor="middle" x="294.583" y="-195.28" font-family="Times,serif" font-size="14.00">#15</text>
</g>
</g>
</svg>
